<svg width="261" height="33" viewBox="0 0 261 33" fill="none" xmlns="http://www.w3.org/2000/svg">
<path d="M54.0095 27.9302L52.5095 2.93024L58.0095 1.93024L59.5095 10.9302L63.0095 2.93024L67.5095 7.43024L63.0095 14.9302L69.5095 17.9302V24.4302L60.0095 19.4302L59.5095 26.9302L54.0095 27.9302Z" fill="black" stroke="black" stroke-width="2"/>
<path d="M69.5095 3.93024L88.0095 3.43024L87.0095 9.93024L80.5095 10.9302L79.0095 23.4302L73.5095 19.9302L75.5095 11.9302L69.0095 10.9302L69.5095 3.93024Z" fill="black" stroke="black" stroke-width="2"/>
<path fill-rule="evenodd" clip-rule="evenodd" d="M91.0095 3.43024L79.5095 26.4302H87.0095L88.5095 21.4302H91.5095L93.0095 27.4302H101.01L93.0095 3.43024H91.0095ZM88.5095 16.9302L91.0095 11.4302L93.0095 17.9302L88.5095 16.9302Z" fill="black" stroke="black" stroke-width="2"/>
<path d="M102.01 27.4302L103.51 3.93024L109.01 5.43024V28.9302L102.01 27.4302Z" fill="black" stroke="black" stroke-width="2"/>
<path d="M113.51 26.9302V4.93024L121.01 6.43024V21.4302L127.51 20.4302V27.4302L113.51 26.9302Z" fill="black" stroke="black" stroke-width="2"/>
<path d="M9.00957 12.9302C9.00957 8.13024 14.3429 9.59691 17.0096 10.9302L19.0096 3.93024C12.8429 0.596904 0.609574 -2.66976 1.00957 10.9302C1.40957 24.5302 11.8429 24.5969 17.0096 22.9302V16.4302C14.3429 17.2636 9.00957 17.7302 9.00957 12.9302Z" fill="#010101" stroke="black" stroke-width="2"/>
<path d="M35.5095 11.9302C35.5095 16.0442 31.9568 19.4302 27.5095 19.4302C23.0623 19.4302 19.5095 16.0442 19.5095 11.9302C19.5095 7.81623 23.0623 4.43024 27.5095 4.43024C31.9568 4.43024 35.5095 7.81623 35.5095 11.9302ZM28.5095 15.4302C30.1664 15.4302 31.5095 14.0871 31.5095 12.4302C31.5095 10.7734 30.1664 9.43024 28.5095 9.43024C26.8527 9.43024 25.5095 10.7734 25.5095 12.4302C25.5095 14.0871 26.8527 15.4302 28.5095 15.4302Z" fill="black" stroke="black"/>
<path d="M44.5095 13.4303C44.9095 9.03025 48.6762 9.93025 50.5095 10.9303V5.43024C46.1762 3.5969 37.4095 2.33024 37.0095 11.9302C36.6095 21.5302 45.8429 22.9302 50.5095 22.4302V17.4302C48.3428 17.9302 44.1095 17.8302 44.5095 13.4303Z" fill="black" stroke="black" stroke-width="2"/>
<path d="M187.01 29.4302C179.01 29.4302 178.676 15.4302 179.51 8.43024H184.51C184.176 12.9302 184.21 21.9302 187.01 21.9302C189.81 21.9302 190.843 14.2636 191.01 10.4302H197.01C197.01 16.7636 195.01 29.4302 187.01 29.4302Z" fill="black" stroke="black" stroke-width="2"/>
<path d="M195.01 27.4302L202.01 6.93024L206.51 7.43024L213.01 19.4302L214.51 8.93024H220.51L217.01 28.9302H211.51L205.51 19.4302L202.01 30.4302L195.01 27.4302Z" fill="black" stroke="black" stroke-width="2"/>
<path d="M221.01 19.4302C221.01 7.83025 232.343 7.26358 238.01 8.43025V13.9302C234.51 13.7636 227.367 11.4302 228.01 20.4302C228.41 26.0302 234.51 23.9302 234.51 20.4302H231.01V16.4302L240.51 15.9302C239.176 20.0969 238.51 28.4302 232.51 28.4302C226.51 28.4302 221.01 26.4302 221.01 19.4302Z" fill="black" stroke="black" stroke-width="2"/>
<path d="M244.51 30.4302L243.01 7.93024H257.51V14.9302L249.51 14.4302V16.9302H257.51V22.9302H249.51L250.51 25.4302L260.01 25.9302V32.4302L244.51 30.4302Z" fill="black" stroke="black"/>
<path d="M143.51 27.9302V4.93024L151.51 5.93024L151.01 21.9302L158.51 23.4302V31.4302L143.51 27.9302Z" fill="black" stroke="black" stroke-width="2"/>
<path d="M176.51 18.9302C176.51 24.2562 172.855 28.4302 168.51 28.4302C164.164 28.4302 160.51 24.2562 160.51 18.9302C160.51 13.6043 164.164 9.43024 168.51 9.43024C172.855 9.43024 176.51 13.6043 176.51 18.9302ZM169.51 23.4302C171.719 23.4302 173.51 21.6394 173.51 19.4302C173.51 17.2211 171.719 15.4302 169.51 15.4302C167.3 15.4302 165.51 17.2211 165.51 19.4302C165.51 21.6394 167.3 23.4302 169.51 23.4302Z" fill="black" stroke="black"/>
</svg>
