<svg width="304" height="361" viewBox="0 0 304 361" fill="none" xmlns="http://www.w3.org/2000/svg">
<path d="M123.5 239.5L120.5 245.5C123.167 250.167 130 260.9 136 266.5C143.5 273.5 156.5 271.5 165.5 267.5C172.7 264.3 179.5 255.167 182 251L177 243.5L172.5 254.5L168 245.5L163.5 262L156.5 252.5L151 265L145 252.5L139 263L135 245.5L128.5 252.5L123.5 239.5Z" fill="black" stroke="black"/>
<path d="M139 229L131.5 240L126 227L121.5 231L119 225C123.5 225.333 142 228 154 228C166 228 180 224.167 185.5 223L181 235L175 228L167.5 241.5L163.5 229L157 242.5L151.5 229L143.5 241.5L139 229Z" fill="black" stroke="black"/>
<path d="M149 271.5C133.4 271.5 115.167 238.5 108 222C116.833 224.167 138.1 228.4 152.5 228C166.9 227.6 186.833 222.5 195 220C193.833 226.167 190.2 240.4 185 248C178.5 257.5 168.5 271.5 149 271.5Z" stroke="black" stroke-width="4"/>
<path d="M185.5 218.5C174.5 222.5 158.826 217.5 160 208.5C161.5 197 176.5 205 184.5 205C194.5 205 205 192.5 205 192.5C204 204 196.5 214.5 185.5 218.5Z" fill="black" stroke="black"/>
<path d="M128 221C144.323 223.839 153.5 214 151.5 207.5C149.5 201 138 204.3 128 203.5C115.5 202.5 101 194.5 101 194.5C105.5 207.5 116.5 219 128 221Z" fill="black" stroke="black"/>
<path d="M86 128L84 151.5M80.5 126.5L77.5 148.5M75.5 123.5L72.5 145.5M70 120L66 140.5M65 116L59.5 136.5M61 112L54 132.5M57.5 107.5L49 128M54 102L45.5 122.5M50 98.5L40.5 118.5M46.5 94.5L36.5 112M44 90L34 105.5M42 83L32.5 97M38.5 79.5L30 92M35.5 76L27.5 87M31 73.5L24 83M25.5 72.5L20.5 79.5" stroke="black" stroke-width="3"/>
<path d="M219 117.5L221 141M224.5 116L227.5 138M229.5 113L232.5 135M235 109.5L239 130M240 105.5L245.5 126M244 101.5L251 122M247.5 97L256 117.5M251 91.5L259.5 112M255 88L264.5 108M258.5 84L268.5 101.5M261 79.5L271 95M263 72.5L272.5 86.5M266.5 69L275 81.5M269.5 65.5L277.5 76.5M274 63L281 72.5M279.5 62L284.5 69" stroke="black" stroke-width="3"/>
<path d="M72.5 145.5C80.1 149.5 87 156.5 89.5 159L91.5 131.5C88.6667 130.667 76.2632 123 69 117C61.7368 111 58 106 51.5 99C45.5485 92.5907 42.5 76.4666 29.5 73C23.9662 71.5244 10.3333 69.8334 7 71C10.6667 74 20.9 80.5 26.5 86.5C32.1 92.5 29 103.5 39.5 118.5C50 133.5 63 140.5 72.5 145.5Z" stroke="black" stroke-width="6"/>
<path d="M232 135.889C224.4 139.889 217 145 214.5 147.5L213 121.889C215.833 121.056 228.237 113.389 235.5 107.389C242.763 101.389 246.5 96.3889 253 89.3889C258.952 82.9796 262 66.8555 275 63.3889C280.534 61.9133 294.167 60.2223 297.5 61.389C293.833 64.389 283.6 70.8889 278 76.8889C272.4 82.8889 275.5 93.8889 265 108.889C254.5 123.889 241.5 130.889 232 135.889Z" stroke="black" stroke-width="6"/>
<path d="M92.5 129C91.6667 140.833 90 152.5 90 171.5C92.5 190.5 98.5 217.5 99 224.5C99.5 231.5 123.924 272.106 139.5 276C145.5 277.5 160.261 277.352 166.5 274.5C184 266.5 199.318 239.122 201.5 234.5C210 216.5 215 152.5 213 119.5" stroke="black" stroke-width="5"/>
<path d="M67 167.5C70 166 86.3333 178.167 92 185L93 191.5C89.3913 189.575 77 176 75.5 177C74.5 181.5 81 189 85 193C86 194 87.5 192 89.5 194C90.651 195.151 90.1615 197.067 89 198C87 196 85.5 196.5 86 199C86.3173 201.704 90.9648 206.599 91.5 207C93.5 208.5 96.5 209.5 96.5 209.5L99.4999 228.5C96.3333 224.5 92 214.5 86 209C82 203 83.4333 202.5 82.5 199C80.5 191.5 63.5 171.5 67 167.5Z" fill="black" stroke="black"/>
<path d="M222.5 165C218.5 168 213 169.5 213 169.5V176C217.333 172.667 226.1 166.4 226.5 168C227 170 217.95 174.374 216.5 178C215.5 180.5 215.333 188 216 191.5C217 188.167 219.3 181.9 220.5 183.5C222 185.5 217.5 192 216 195.5C214.8 198.3 211.167 203.333 209.5 205L208 213C210.5 210.833 216.2 205.1 219 199.5C222.5 192.5 223.5 187 224.5 180.5C225.5 174 234 164 230.5 157.5C229.5 157.5 226.5 162 222.5 165Z" fill="black" stroke="black"/>
<path d="M123 290C120 280.5 116 284 113.5 270.5C111.619 260.34 108.115 248.205 106.319 242.5C112.879 252.5 127.8 271.7 135 274.5C144 278 152.5 280 166.5 274.5C180.5 269 202 234.5 202 234.5C201 242.5 192 258 191 263.5C190 269 193.5 272.5 193.5 278.5C193.5 284.5 188.5 286 187.5 292.5C186.5 299 190.5 296 187.5 305.5C184.5 315 176.5 313 171.5 323C166.5 333 174.1 335.1 170.5 341.5C169.335 343.571 164.207 348.821 163 353C162.422 355 166 359.029 165.5 359.5C165 359.971 157.5 357.5 156.5 356C152.5 350 156.5 334.853 152.5 334.5C140 333.397 135 323 127.5 313C122.415 306.22 126 299.5 123 290Z" fill="black"/>
<path d="M106 241.5C106.099 241.806 106.205 242.14 106.319 242.5M106.319 242.5C108.115 248.205 111.619 260.34 113.5 270.5C116 284 120 280.5 123 290C126 299.5 122.415 306.22 127.5 313C135 323 140 333.397 152.5 334.5C156.5 334.853 152.5 350 156.5 356C157.5 357.5 165 359.971 165.5 359.5C166 359.029 162.422 355 163 353C164.207 348.821 169.335 343.571 170.5 341.5C174.1 335.1 166.5 333 171.5 323C176.5 313 184.5 315 187.5 305.5C190.5 296 186.5 299 187.5 292.5C188.5 286 193.5 284.5 193.5 278.5C193.5 272.5 190 269 191 263.5C192 258 201 242.5 202 234.5C202 234.5 180.5 269 166.5 274.5C152.5 280 144 278 135 274.5C127.8 271.7 112.879 252.5 106.319 242.5Z" stroke="black" stroke-width="2"/>
<path d="M159 190.5C159 190.5 146.5 192.5 147.5 197C147.825 198.464 175 197 175 197C175 197 166.5 196 159 190.5Z" fill="black" stroke="black"/>
<path d="M153 147C152.167 149.5 156.109 159.5 159.5 166C165.5 177.5 177 179.5 180 192C180 200 157.5 199.333 147 197.5" stroke="black" stroke-width="4"/>
<path d="M95 157V154C98.8333 155.833 108.9 159.4 118.5 159C128.1 158.6 138.5 154.5 142.5 152.5L144 154L136.5 159L135.5 168L128 161.5L124.5 171.5L118.5 164L111.5 174L106 161.5L98.5 169.5L97.5 159L95 157Z" fill="black" stroke="black"/>
<path fill-rule="evenodd" clip-rule="evenodd" d="M160.5 154C164.167 158.667 174 167.7 184 166.5C194 165.3 205.167 155.333 209.5 150.5L204.5 145.5L203.5 137.5L196 144L191 134.5L186 142.5L180.5 135.5L177 144.5L169 139L167 148.5L160.5 154ZM183 163.5C176 163.5 169 158 164.5 154C167.333 151.667 174.5 146.833 184.5 145.5C193 144.367 201.167 149 205.5 150.5C202 154.5 192.521 163.5 183 163.5Z" fill="black" stroke="black"/>
<path d="M195.5 154.5C195.5 160.023 191.023 164.5 185.5 164.5C179.977 164.5 175.5 160.023 175.5 154.5C175.5 148.977 179.977 144.5 185.5 144.5C191.023 144.5 195.5 148.977 195.5 154.5ZM185.5 158.5C187.709 158.5 189.5 156.709 189.5 154.5C189.5 152.291 187.709 150.5 185.5 150.5C183.291 150.5 181.5 152.291 181.5 154.5C181.5 156.709 183.291 158.5 185.5 158.5Z" fill="black" stroke="black"/>
<path d="M116 189.5C116 191.985 114.209 194 112 194C109.791 194 106.5 193.485 106.5 191C106.5 188.515 109.791 185 112 185C114.209 185 116 187.015 116 189.5Z" fill="black"/>
<path d="M123 178.901C123 181.11 120.985 182.901 118.5 182.901C116.015 182.901 114.5 181 114 178.901C114 176.692 116.015 174.901 118.5 174.901C120.985 174.901 123 174.901 123 178.901Z" fill="black"/>
<path d="M133 183.5C134 187.5 130.985 189 128.5 189C126.015 189 123.5 186.538 123.5 183.5C124.5 180.5 126.015 178 128.5 178C130.985 178 133 180.462 133 183.5Z" fill="black"/>
<ellipse cx="182.5" cy="174" rx="5.5" ry="5" fill="black"/>
<path d="M207 172.5C207 174.985 204.761 177 202 177C199.238 177 197 176 197 173C197 170.515 199.238 168 202 168C204.761 168 207 170.015 207 172.5Z" fill="black"/>
<ellipse cx="191.5" cy="184" rx="4.5" ry="5" fill="black"/>
<path d="M114.5 134.5V144.5H122L125 136L114.5 134.5Z" fill="black"/>
<path d="M109.5 134.5V146M126.5 146L129.5 136M131.5 147.5L134.5 139M96.5 144.5L105 139V144.5H96.5ZM114.5 134.5V144.5H122L125 136L114.5 134.5Z" stroke="black" stroke-width="3"/>
<path d="M175 125L177.5 134M179.5 122.5L181.5 132M185 121L186 130.5M191 121V130.5M166.5 136L168.5 130.5L171.5 128L173.5 134L166.5 136ZM197 123.5V130.5L207 132L197 123.5Z" stroke="black" stroke-width="3"/>
<path d="M150.5 142.5L133 130C133 130 140.5 130 144 127C147.5 124 150.5 120.5 150.5 120.5C151.333 121.5 153.1 124 157.5 126C160.5 127.364 164.833 127.167 166 127L150.5 142.5Z" fill="black" stroke="black" stroke-width="3"/>
<path d="M187 85.5C180.2 85.1 169.833 91 165.5 94.5C161.5 91 159 87.5 149 87.5C140.5 87.5 134 94.5 130 100.5C128.333 97.8333 122 92.2619 115.5 93.5C109.043 94.7299 103.079 102.398 99.5693 106.911L99.5 107C98.3333 104.667 94.7 101.1 89.5 101.5C83 102 79.5 105.5 80 112C80.5 118.5 85 122.5 94.5 122.5C101.5 122.5 105.5 118 108 114C111.333 117.833 119.5 125 130 125C135.5 125 148.333 117.5 151.5 114C153.667 117.167 160 123 168 121C176 119 184 111.833 187 108.5L187.14 108.611C190.365 111.158 197.109 116.485 204.5 115.5C204.5 115.5 215 113.5 215 106C215 98.5 205.5 98 203 98C200.5 93.6667 195 85.9706 187 85.5Z" stroke="black" stroke-width="4"/>
<path d="M144.5 0.5C141 0.5 92 47.5 92 47.5L93.5 50.5L120.5 49L129 38L130 39C119 55.5 96.7 89.3 95.5 92.5C94 96.5 95 98.5 99.5 98.5C104 96 108 89.5 117 89.5C123.083 89.5 125 93 128 92.5C131 89.5 141.5 81.5 152.5 81.5C158.1 81.5 164.167 86.1667 166.5 88.5C170.833 86.1667 178.5 81.5 185.5 81.5C190.3 81.5 199.167 86.1667 203 88.5C201.5 86.6667 198.3 82.7 197.5 81.5C196.7 80.3 197.167 76.3333 197.5 74.5C182 49.8333 149.7 0.5 144.5 0.5Z" fill="black" stroke="black"/>
<path d="M85.9999 41C91.5999 43.8 92.9999 47.8333 92.9999 49.5V55.5C96 57 101.1 61.6 97.5 68C93.9 74.4 86 72 82.5 70C82.6667 73.1667 80.6 79.5 71 79.5C61.4 79.5 60.3333 69.8333 61 65C57.5 64.6667 50.2 62.3 49 55.5C47.8 48.7 57.8333 46 62.9999 45.5C61.6666 41.5 60.6999 33.1 67.4999 31.5C74.2999 29.9 76.9999 38.5 77.4999 43C77.9999 41.1667 80.3999 38.2 85.9999 41Z" stroke="black" stroke-width="3"/>
</svg>
