<svg width="497" height="142" viewBox="0 0 497 142" fill="none" xmlns="http://www.w3.org/2000/svg">
<path fill-rule="evenodd" clip-rule="evenodd" d="M258.5 36H266L269.5 28.5L274.5 37H281.5L271 12L266.5 12.5L258.5 36ZM266.5 23L268 18L271 23H266.5Z" fill="black" stroke="black"/>
<path d="M211 33V13L216 14V21L222.5 14L226 17.5L220.5 24L226 30L220.5 33L216 28V33H211Z" fill="black" stroke="black"/>
<path d="M228.5 35L227 14.5H239L237 19.5H233V24H240V27.5H233V31H241.5V35H228.5Z" fill="black" stroke="black"/>
<path d="M169.5 22L168.5 17.5L191.5 15V20L187.5 21L189 34H182L179 21L169.5 22Z" fill="black" stroke="black"/>
<path fill-rule="evenodd" clip-rule="evenodd" d="M197.5 16L192.5 34.5H197.5L201.5 29L204.5 34.5H212L201.5 16H197.5ZM198.5 25L199.5 20L203 25H198.5Z" fill="black" stroke="black"/>
<path d="M247 28.5C247 25.7 241.5 25 241.5 19C243.5 10 255.5 14.5 255.5 14.5L252.5 21C250.667 19.1667 247 17 247 19C247 23.5 253.5 26.5 253.5 33.5C253.5 37.5792 245.167 37.5 241.5 37V30.5C243.333 31 247 31.3 247 28.5Z" fill="black" stroke="black"/>
<path fill-rule="evenodd" clip-rule="evenodd" d="M456.5 73.5C444.833 81.8333 419.7 99.2 412.5 102C412.5 102 413.5 108.167 418.5 109.5L431.5 102L440.5 108.5L438 119.5L443 122.5L458 76L456.5 73.5ZM435 100L447.5 89L442 105.5L435 100Z" fill="black" stroke="black"/>
<path d="M460.5 122.5L459.5 90.5L472 87V112L492 93.5L496 99.5L450.5 141L445.5 136L460.5 122.5Z" fill="black" stroke="black"/>
<path fill-rule="evenodd" clip-rule="evenodd" d="M413.5 52.5L392.5 94C399.167 97.8333 416.5 100 430.5 84C437.5 76 424.833 56.8333 413.5 52.5ZM405 91.5L420 63.5C422.833 65.8333 428.667 70 425 81C422.2 89.4 410.5 91.5 405 91.5Z" fill="black" stroke="black"/>
<path d="M284 44.5L305 1L315 6.5L306.5 28.5L316.5 33.5L325.5 13.5L332 18L315 56.5L308.5 54.5L313.5 37L305 33.5L297 49L284 44.5Z" fill="black" stroke="black"/>
<path fill-rule="evenodd" clip-rule="evenodd" d="M353 27.5C346 25.5 330 26.3 322 45.5C317.208 57 325 65 336 67C347 69 356 58.5 359.5 51.5C363 44.5 359.5 31 353 27.5ZM340 62C332 61 331.5 49.5 334 44.5C336.5 39.5 342 36.3 350 35.5C354 35.1 357.5 41.5 356.5 48C355.5 54.5 347.938 62.9922 340 62Z" fill="black" stroke="black"/>
<path d="M354.5 73L373.5 36L382 41.5L365.5 73L376.5 77.5L374.5 83.5L354.5 73Z" fill="black" stroke="black"/>
<path d="M377 86.5C383.167 75.5 395.8 53.1 397 51.5L405.5 54.5L385.5 90.5L377 86.5Z" fill="black" stroke="black"/>
<path d="M141 58.5L127.5 22.5L141 18L152.5 50.5L169 43.5V50.5L141 58.5Z" fill="black" stroke="black"/>
<path d="M103 80.5L62.5 49.5L73.5 40C82.5 47 96 61.1429 97.5 60.5C98.5 60.0714 98.6667 39 97.5 29L103 34.5V80.5Z" fill="black" stroke="black"/>
<path d="M120 65L104.5 28.5L120 24.5L134.5 60L120 65Z" fill="black" stroke="black"/>
<path fill-rule="evenodd" clip-rule="evenodd" d="M1 88L29 126C32.5 124.333 40.4 119.7 44 106.5C46.8636 96 45.5 86.5 41 80.5C36.5 74.5 25.5 72.5 15.5 76.5C7.5 79.7 2.5 85.5 1 88ZM35.5 109L15.5 83.5C19.3333 79.8333 30.6363 76.5 37 83.5C46.1603 93.5763 39.5 104.5 35.5 109Z" fill="black" stroke="black"/>
<path d="M57.5 102L35 59C39.6861 56.2309 57 46.5 57 46.5L59.5 50.5C59.5 50.5 51.8333 56.6667 47.5 59L54 74C56.4036 72.3655 68 66.5 68 66.5L69.5 69C69.5 69 60.5 76.1666 56 79L63.5 91.5C65.9085 90.0549 80 83 80 83L82.5 86.5C82.5 86.5 66.5 98 57.5 102Z" fill="black" stroke="black"/>
</svg>
